@startuml

skinparam class {
    HeaderBackgroundColor #DAE8FC
	BackgroundColor White
	ArrowColor black
	BorderColor 6C8EBF
	FontSize 15
	headerFontColor 6C8EBF
	style Frame
	FontName Arial Rounded MT Bold
	}

hide circle

skinparam classAttributeIconSize 0

skinparam classAttributeFontSize 13

skinparam shadowing false

skinparam defaultFontName Segoe UI

class DeactivateSensorOfGeographicAreaUI
class DeactivateSensorOfGeographicAreaController
class GeographicArea
class ListOfSensors
class Sensor
class MapperListOfSensors
class MapperListOfGeographicArea
class ListOfSensorsDto
class SensorDto
class GeographicAreaDto
class ListOfGeographicAreaDto
class ListOfStatus
Class Status


DeactivateSensorOfGeographicAreaUI "1" --> "1" DeactivateSensorOfGeographicAreaController
DeactivateSensorOfGeographicAreaController "1" --> "1" ListOfGeographicArea
DeactivateSensorOfGeographicAreaController "1" ..> "1" MapperListOfGeographicArea
DeactivateSensorOfGeographicAreaController "1" ..> "1" MapperListOfSensors
MapperListOfGeographicArea "1" --> "1" ListOfGeographicAreaDto
MapperListOfSensors "1" --> "1" ListOfSensorsDto
ListOfGeographicAreaDto "1" --> "0..*" GeographicAreaDto
ListOfSensorsDto "1" --> "0..*" SensorDto

ListOfGeographicArea "1"  -->  "0..*" GeographicArea
GeographicArea "1" --> "1" ListOfSensors
ListOfSensors "1" --> "0..*" Sensor
Sensor "    1" -left-> "0..1" ListOfStatus

ListOfStatus "     1" -left-> "0..*" Status



DeactivateSensorOfGeographicAreaUI : - geographicArea:GeographicArea
DeactivateSensorOfGeographicAreaUI : - ctrl010:DeactivateSensorOfGeographicAreaUI
DeactivateSensorOfGeographicAreaUI : + run ( )

DeactivateSensorOfGeographicAreaController : + deactivateSensor ( )
DeactivateSensorOfGeographicAreaController : + getListOfSensorsActivate ( )

MapperListOfSensors : + {static} toDto ( )

MapperListOfGeographicArea : + {static} toDto ( )

ListOfGeographicAreaDto : + getListOfGeographicAreaDto ( )
ListOfSensorsDto : + getListOfSensorDto ( )

SensorDto : - geographicAreaType:String
SensorDto : - id:Long
SensorDto : + getName ( )
SensorDto : + getId ( )

GeographicAreaDto : - geographicAreaType:String
GeographicAreaDto : - id:Long
GeographicAreaDto : + getName ( )
GeographicAreaDto : + getId ( )

ListOfGeographicArea : +getGeographicArea ( )
ListOfGeographicArea : + getGAByID ( )

GeographicArea : - geographicAreaType:String
GeographicArea : + getListOfSensors ( )
GeographicArea : + getId ( )

ListOfSensors : + getSensorName ( )
ListOfSensors : + getListOfSensorsActive ( )
ListOfSensors : + getSensorByID ( )

Sensor : - geographicAreaType:String
Sensor : + getId ( )

Status : - true:boolean
Status : - deactivateDate:LocalDate
Status : + isSensorStatus ( )

@enduml